<svg xmlns="http://www.w3.org/2000/svg" xmlns:xlink="http://www.w3.org/1999/xlink" preserveAspectRatio="xMidYMid" width="146" height="28" viewBox="0 0 146 28">
  <defs>
    <style>
      .cls-1 {
        fill: #fff;
        fill-rule: evenodd;
      }
    </style>
  </defs>
  <path d="M143.630,4.843 L136.198,4.843 L138.568,0.001 L146.000,0.001 L143.630,4.843 ZM126.239,23.110 L130.148,23.110 L130.142,23.142 L141.432,23.142 L138.102,28.000 L108.558,28.000 L104.906,28.000 L100.994,28.000 L94.732,17.958 L97.052,14.712 L96.355,14.712 L87.158,27.664 L80.431,27.664 L89.628,14.712 L83.275,14.712 L85.449,10.134 L92.880,10.134 L96.762,4.667 L85.092,4.667 L87.265,0.088 L115.208,0.088 L113.035,4.667 L103.489,4.667 L99.607,10.134 L111.171,10.134 L108.998,14.712 L100.352,14.712 L100.186,14.712 L105.498,23.142 L119.647,23.142 L127.998,4.843 L116.003,4.843 L118.560,0.001 L136.904,0.001 L134.824,4.298 L126.239,23.110 ZM67.522,10.874 C67.535,10.604 67.535,10.347 67.523,10.101 C67.511,9.856 67.496,9.618 67.472,9.390 L75.176,9.390 C75.164,9.869 75.126,10.364 75.065,10.874 L67.522,10.874 ZM66.940,7.684 C66.743,7.421 66.507,7.192 66.242,6.994 L74.998,6.994 C75.086,7.469 75.140,7.964 75.164,8.479 L67.307,8.479 C67.223,8.176 67.105,7.907 66.940,7.684 ZM27.605,6.131 L12.306,21.380 L29.169,21.380 L29.176,21.366 L38.384,21.366 L37.640,22.850 L28.430,22.850 L27.971,23.761 L37.183,23.761 L36.438,25.245 L27.224,25.245 L26.765,26.156 L35.981,26.156 L35.308,27.497 L26.090,27.497 L-0.000,27.497 L3.068,21.380 L18.410,6.131 L7.711,6.131 L10.742,0.000 L30.680,0.000 L56.770,0.000 L56.123,1.293 L30.032,1.293 L29.575,2.204 L55.667,2.204 L55.228,3.081 C55.664,2.762 56.112,2.473 56.569,2.204 L72.335,2.204 C72.842,2.636 73.288,3.129 73.669,3.688 L28.831,3.688 L29.118,3.116 L27.691,5.961 L28.375,4.599 L74.207,4.599 C74.443,5.067 74.634,5.562 74.785,6.083 L27.629,6.083 L27.605,6.131 ZM65.043,0.000 C67.449,0.000 69.437,0.433 71.008,1.293 L58.378,1.293 C60.406,0.433 62.627,0.000 65.043,0.000 ZM30.382,18.970 L39.586,18.970 L38.841,20.455 L29.634,20.455 L30.382,18.970 ZM31.587,16.575 L40.787,16.575 L40.042,18.059 L30.841,18.059 L31.587,16.575 ZM32.793,14.180 L41.989,14.180 L41.245,15.664 L32.046,15.664 L32.793,14.180 ZM33.998,11.785 L43.191,11.785 L42.446,13.269 L33.251,13.269 L33.998,11.785 ZM35.203,9.390 L44.392,9.390 L43.647,10.874 L34.456,10.874 L35.203,9.390 ZM36.409,6.994 L45.594,6.994 L44.849,8.479 L35.662,8.479 L36.409,6.994 ZM55.223,16.575 C55.208,16.852 55.206,17.115 55.218,17.364 C55.228,17.606 55.248,17.838 55.275,18.059 L47.581,18.059 C47.595,17.581 47.634,17.084 47.697,16.575 L55.223,16.575 ZM55.805,19.800 C55.937,20.027 56.117,20.250 56.350,20.455 L47.748,20.455 C47.663,19.980 47.610,19.484 47.588,18.970 L55.458,18.970 C55.547,19.278 55.661,19.556 55.805,19.800 ZM60.054,6.994 C59.642,7.232 59.293,7.500 59.011,7.772 C58.779,7.996 58.554,8.228 58.333,8.479 L50.410,8.479 C50.707,7.965 51.025,7.468 51.364,6.994 L60.054,6.994 ZM57.626,9.390 C57.474,9.611 57.324,9.851 57.174,10.113 C57.034,10.358 56.899,10.612 56.771,10.874 L49.232,10.874 C49.443,10.364 49.670,9.869 49.914,9.390 L57.626,9.390 ZM47.835,15.664 C47.920,15.182 48.025,14.688 48.151,14.180 L55.605,14.180 C55.477,14.705 55.380,15.201 55.314,15.664 L47.835,15.664 ZM56.364,11.785 C56.175,12.255 56.002,12.750 55.849,13.269 L48.399,13.269 C48.546,12.762 48.704,12.267 48.877,11.785 L56.364,11.785 ZM59.279,21.380 C59.430,21.380 59.578,21.375 59.723,21.366 L70.727,21.366 C70.302,21.886 69.851,22.382 69.372,22.850 L48.519,22.850 C48.288,22.382 48.102,21.886 47.956,21.366 L58.854,21.366 C58.991,21.375 59.131,21.380 59.279,21.380 ZM68.332,23.787 C67.670,24.335 66.979,24.819 66.263,25.245 L50.348,25.245 C49.861,24.819 49.429,24.335 49.061,23.787 L49.044,23.761 L68.362,23.761 L68.332,23.787 ZM57.693,27.498 C55.234,27.498 53.219,27.047 51.638,26.156 L64.483,26.156 C62.419,27.047 60.155,27.498 57.693,27.498 ZM63.741,19.770 C64.022,19.526 64.280,19.257 64.520,18.970 L72.375,18.970 C72.078,19.484 71.760,19.980 71.422,20.455 L62.786,20.455 C63.138,20.248 63.458,20.017 63.741,19.770 ZM65.701,17.209 C65.813,17.005 65.920,16.793 66.023,16.575 L73.549,16.575 C73.339,17.084 73.114,17.581 72.871,18.059 L65.192,18.059 C65.370,17.786 65.540,17.503 65.701,17.209 ZM66.922,14.180 L74.377,14.180 C74.232,14.688 74.072,15.182 73.899,15.664 L66.418,15.664 C66.601,15.198 66.770,14.705 66.922,14.180 ZM67.441,11.785 L74.929,11.785 C74.846,12.267 74.744,12.761 74.619,13.269 L67.164,13.269 C67.288,12.743 67.381,12.249 67.441,11.785 Z" class="cls-1"/>
</svg>
